<mxfile host="app.diagrams.net" modified="2021-12-20T23:13:42.256Z" agent="5.0 (Windows NT 6.1; Win64; x64) AppleWebKit/537.36 (KHTML, like Gecko) Chrome/96.0.4664.110 Safari/537.36" etag="KnLMEe3TA1_rrmOKK2mj" version="16.0.0" type="github">
  <diagram id="wfbCHq00WRVTaW4-jE_w" name="Page-1">
    <mxGraphModel dx="1102" dy="614" grid="1" gridSize="10" guides="1" tooltips="1" connect="1" arrows="1" fold="1" page="1" pageScale="1" pageWidth="850" pageHeight="1100" background="#B0E3E6" math="0" shadow="0">
      <root>
        <mxCell id="0" />
        <mxCell id="1" parent="0" />
        <mxCell id="5_xsWp0p6IKdPcsy124D-1" value="&lt;&lt; User &gt;&gt;" style="swimlane;fontStyle=2;align=center;verticalAlign=top;childLayout=stackLayout;horizontal=1;startSize=26;horizontalStack=0;resizeParent=1;resizeLast=0;collapsible=1;marginBottom=0;rounded=0;shadow=0;strokeWidth=1;fillColor=#F08E81;strokeColor=#FFFFFF;fontColor=#1A1A1A;" vertex="1" parent="1">
          <mxGeometry x="156" y="93" width="160" height="242" as="geometry">
            <mxRectangle x="230" y="140" width="160" height="26" as="alternateBounds" />
          </mxGeometry>
        </mxCell>
        <mxCell id="5_xsWp0p6IKdPcsy124D-2" value="Name : string" style="text;align=left;verticalAlign=top;spacingLeft=4;spacingRight=4;overflow=hidden;rotatable=0;points=[[0,0.5],[1,0.5]];portConstraint=eastwest;fillColor=#ffff88;strokeColor=#36393d;" vertex="1" parent="5_xsWp0p6IKdPcsy124D-1">
          <mxGeometry y="26" width="160" height="26" as="geometry" />
        </mxCell>
        <mxCell id="5_xsWp0p6IKdPcsy124D-3" value="Phone Number : number" style="text;align=left;verticalAlign=top;spacingLeft=4;spacingRight=4;overflow=hidden;rotatable=0;points=[[0,0.5],[1,0.5]];portConstraint=eastwest;rounded=0;shadow=0;html=0;fillColor=#ffff88;strokeColor=#36393d;" vertex="1" parent="5_xsWp0p6IKdPcsy124D-1">
          <mxGeometry y="52" width="160" height="26" as="geometry" />
        </mxCell>
        <mxCell id="5_xsWp0p6IKdPcsy124D-4" value="Email Address : string" style="text;align=left;verticalAlign=top;spacingLeft=4;spacingRight=4;overflow=hidden;rotatable=0;points=[[0,0.5],[1,0.5]];portConstraint=eastwest;rounded=0;shadow=0;html=0;fillColor=#ffff88;strokeColor=#36393d;" vertex="1" parent="5_xsWp0p6IKdPcsy124D-1">
          <mxGeometry y="78" width="160" height="26" as="geometry" />
        </mxCell>
        <mxCell id="5_xsWp0p6IKdPcsy124D-5" value="Password : string" style="text;align=left;verticalAlign=top;spacingLeft=4;spacingRight=4;overflow=hidden;rotatable=0;points=[[0,0.5],[1,0.5]];portConstraint=eastwest;rounded=0;shadow=0;html=0;fillColor=#ffff88;strokeColor=#36393d;" vertex="1" parent="5_xsWp0p6IKdPcsy124D-1">
          <mxGeometry y="104" width="160" height="26" as="geometry" />
        </mxCell>
        <mxCell id="5_xsWp0p6IKdPcsy124D-6" value="Profile_Image : img" style="text;align=left;verticalAlign=top;spacingLeft=4;spacingRight=4;overflow=hidden;rotatable=0;points=[[0,0.5],[1,0.5]];portConstraint=eastwest;rounded=0;shadow=0;html=0;fillColor=#ffff88;strokeColor=#36393d;" vertex="1" parent="5_xsWp0p6IKdPcsy124D-1">
          <mxGeometry y="130" width="160" height="26" as="geometry" />
        </mxCell>
        <mxCell id="5_xsWp0p6IKdPcsy124D-7" value="Created_Date: date" style="text;align=left;verticalAlign=top;spacingLeft=4;spacingRight=4;overflow=hidden;rotatable=0;points=[[0,0.5],[1,0.5]];portConstraint=eastwest;rounded=0;shadow=0;html=0;fillColor=#ffff88;strokeColor=#36393d;" vertex="1" parent="5_xsWp0p6IKdPcsy124D-1">
          <mxGeometry y="156" width="160" height="26" as="geometry" />
        </mxCell>
        <mxCell id="5_xsWp0p6IKdPcsy124D-8" value="" style="line;html=1;strokeWidth=1;align=left;verticalAlign=middle;spacingTop=-1;spacingLeft=3;spacingRight=3;rotatable=0;labelPosition=right;points=[];portConstraint=eastwest;labelBackgroundColor=#B0E3E6;fillColor=#ffff88;strokeColor=#36393d;" vertex="1" parent="5_xsWp0p6IKdPcsy124D-1">
          <mxGeometry y="182" width="160" height="8" as="geometry" />
        </mxCell>
        <mxCell id="5_xsWp0p6IKdPcsy124D-9" value="Login() / Logout()" style="text;align=left;verticalAlign=top;spacingLeft=4;spacingRight=4;overflow=hidden;rotatable=0;points=[[0,0.5],[1,0.5]];portConstraint=eastwest;fillColor=#ffff88;strokeColor=#36393d;" vertex="1" parent="5_xsWp0p6IKdPcsy124D-1">
          <mxGeometry y="190" width="160" height="26" as="geometry" />
        </mxCell>
        <mxCell id="5_xsWp0p6IKdPcsy124D-10" value="ViewDashboard()" style="text;align=left;verticalAlign=top;spacingLeft=4;spacingRight=4;overflow=hidden;rotatable=0;points=[[0,0.5],[1,0.5]];portConstraint=eastwest;fillColor=#ffff88;strokeColor=#36393d;" vertex="1" parent="5_xsWp0p6IKdPcsy124D-1">
          <mxGeometry y="216" width="160" height="26" as="geometry" />
        </mxCell>
        <mxCell id="5_xsWp0p6IKdPcsy124D-33" style="edgeStyle=elbowEdgeStyle;rounded=0;sketch=0;orthogonalLoop=1;jettySize=auto;html=1;exitX=0.5;exitY=0;exitDx=0;exitDy=0;entryX=0.5;entryY=1;entryDx=0;entryDy=0;fontColor=#1A1A1A;strokeColor=#182E3E;elbow=vertical;strokeWidth=2;" edge="1" parent="1" source="5_xsWp0p6IKdPcsy124D-11" target="5_xsWp0p6IKdPcsy124D-1">
          <mxGeometry relative="1" as="geometry" />
        </mxCell>
        <mxCell id="5_xsWp0p6IKdPcsy124D-11" value="Analyst" style="swimlane;fontStyle=0;align=center;verticalAlign=top;childLayout=stackLayout;horizontal=1;startSize=26;horizontalStack=0;resizeParent=1;resizeLast=0;collapsible=1;marginBottom=0;rounded=0;shadow=0;strokeWidth=1;fillColor=#F08E81;strokeColor=#FFFFFF;fontColor=#1A1A1A;" vertex="1" parent="1">
          <mxGeometry x="40" y="390" width="183" height="320" as="geometry">
            <mxRectangle x="130" y="380" width="160" height="26" as="alternateBounds" />
          </mxGeometry>
        </mxCell>
        <mxCell id="5_xsWp0p6IKdPcsy124D-12" value="CNIC: number" style="text;align=left;verticalAlign=top;spacingLeft=4;spacingRight=4;overflow=hidden;rotatable=0;points=[[0,0.5],[1,0.5]];portConstraint=eastwest;fillColor=#ffff88;strokeColor=#36393d;" vertex="1" parent="5_xsWp0p6IKdPcsy124D-11">
          <mxGeometry y="26" width="183" height="26" as="geometry" />
        </mxCell>
        <mxCell id="5_xsWp0p6IKdPcsy124D-13" value="is_CNIC_verified: bool" style="text;align=left;verticalAlign=top;spacingLeft=4;spacingRight=4;overflow=hidden;rotatable=0;points=[[0,0.5],[1,0.5]];portConstraint=eastwest;fillColor=#ffff88;strokeColor=#36393d;" vertex="1" parent="5_xsWp0p6IKdPcsy124D-11">
          <mxGeometry y="52" width="183" height="26" as="geometry" />
        </mxCell>
        <mxCell id="5_xsWp0p6IKdPcsy124D-14" value="Wallet_id: String" style="text;align=left;verticalAlign=top;spacingLeft=4;spacingRight=4;overflow=hidden;rotatable=0;points=[[0,0.5],[1,0.5]];portConstraint=eastwest;fillColor=#ffff88;strokeColor=#36393d;" vertex="1" parent="5_xsWp0p6IKdPcsy124D-11">
          <mxGeometry y="78" width="183" height="26" as="geometry" />
        </mxCell>
        <mxCell id="5_xsWp0p6IKdPcsy124D-15" value="" style="line;html=1;strokeWidth=1;align=left;verticalAlign=middle;spacingTop=-1;spacingLeft=3;spacingRight=3;rotatable=0;labelPosition=right;points=[];portConstraint=eastwest;labelBackgroundColor=#B0E3E6;fillColor=#ffff88;strokeColor=#36393d;" vertex="1" parent="5_xsWp0p6IKdPcsy124D-11">
          <mxGeometry y="104" width="183" height="8" as="geometry" />
        </mxCell>
        <mxCell id="5_xsWp0p6IKdPcsy124D-16" value="Register() : void" style="text;align=left;verticalAlign=top;spacingLeft=4;spacingRight=4;overflow=hidden;rotatable=0;points=[[0,0.5],[1,0.5]];portConstraint=eastwest;fillColor=#ffff88;strokeColor=#36393d;" vertex="1" parent="5_xsWp0p6IKdPcsy124D-11">
          <mxGeometry y="112" width="183" height="26" as="geometry" />
        </mxCell>
        <mxCell id="5_xsWp0p6IKdPcsy124D-17" value="UpdateProfile()" style="text;align=left;verticalAlign=top;spacingLeft=4;spacingRight=4;overflow=hidden;rotatable=0;points=[[0,0.5],[1,0.5]];portConstraint=eastwest;fillColor=#ffff88;strokeColor=#36393d;" vertex="1" parent="5_xsWp0p6IKdPcsy124D-11">
          <mxGeometry y="138" width="183" height="26" as="geometry" />
        </mxCell>
        <mxCell id="5_xsWp0p6IKdPcsy124D-18" value="AddCash() : void" style="text;align=left;verticalAlign=top;spacingLeft=4;spacingRight=4;overflow=hidden;rotatable=0;points=[[0,0.5],[1,0.5]];portConstraint=eastwest;fontStyle=4;fillColor=#ffff88;strokeColor=#36393d;" vertex="1" parent="5_xsWp0p6IKdPcsy124D-11">
          <mxGeometry y="164" width="183" height="26" as="geometry" />
        </mxCell>
        <mxCell id="5_xsWp0p6IKdPcsy124D-19" value="UploadProduct() : void" style="text;align=left;verticalAlign=top;spacingLeft=4;spacingRight=4;overflow=hidden;rotatable=0;points=[[0,0.5],[1,0.5]];portConstraint=eastwest;fillColor=#ffff88;strokeColor=#36393d;" vertex="1" parent="5_xsWp0p6IKdPcsy124D-11">
          <mxGeometry y="190" width="183" height="26" as="geometry" />
        </mxCell>
        <mxCell id="5_xsWp0p6IKdPcsy124D-20" value="ItemExchangeRequest() : void" style="text;align=left;verticalAlign=top;spacingLeft=4;spacingRight=4;overflow=hidden;rotatable=0;points=[[0,0.5],[1,0.5]];portConstraint=eastwest;fillColor=#ffff88;strokeColor=#36393d;" vertex="1" parent="5_xsWp0p6IKdPcsy124D-11">
          <mxGeometry y="216" width="183" height="26" as="geometry" />
        </mxCell>
        <mxCell id="5_xsWp0p6IKdPcsy124D-21" value="TrackOrder() : void" style="text;align=left;verticalAlign=top;spacingLeft=4;spacingRight=4;overflow=hidden;rotatable=0;points=[[0,0.5],[1,0.5]];portConstraint=eastwest;fillColor=#ffff88;strokeColor=#36393d;" vertex="1" parent="5_xsWp0p6IKdPcsy124D-11">
          <mxGeometry y="242" width="183" height="26" as="geometry" />
        </mxCell>
        <mxCell id="5_xsWp0p6IKdPcsy124D-22" value="SendFeedback() : void" style="text;align=left;verticalAlign=top;spacingLeft=4;spacingRight=4;overflow=hidden;rotatable=0;points=[[0,0.5],[1,0.5]];portConstraint=eastwest;fillColor=#ffff88;strokeColor=#36393d;" vertex="1" parent="5_xsWp0p6IKdPcsy124D-11">
          <mxGeometry y="268" width="183" height="26" as="geometry" />
        </mxCell>
        <mxCell id="5_xsWp0p6IKdPcsy124D-23" value="ReportUser()" style="text;align=left;verticalAlign=top;spacingLeft=4;spacingRight=4;overflow=hidden;rotatable=0;points=[[0,0.5],[1,0.5]];portConstraint=eastwest;fillColor=#ffff88;strokeColor=#36393d;" vertex="1" parent="5_xsWp0p6IKdPcsy124D-11">
          <mxGeometry y="294" width="183" height="26" as="geometry" />
        </mxCell>
        <mxCell id="5_xsWp0p6IKdPcsy124D-34" style="edgeStyle=elbowEdgeStyle;rounded=0;sketch=0;orthogonalLoop=1;jettySize=auto;elbow=vertical;html=1;exitX=0.5;exitY=0;exitDx=0;exitDy=0;entryX=0.5;entryY=1;entryDx=0;entryDy=0;fontColor=#1A1A1A;strokeColor=#182E3E;strokeWidth=2;" edge="1" parent="1" source="5_xsWp0p6IKdPcsy124D-24" target="5_xsWp0p6IKdPcsy124D-1">
          <mxGeometry relative="1" as="geometry" />
        </mxCell>
        <mxCell id="5_xsWp0p6IKdPcsy124D-24" value="Admin" style="swimlane;fontStyle=0;align=center;verticalAlign=top;childLayout=stackLayout;horizontal=1;startSize=26;horizontalStack=0;resizeParent=1;resizeLast=0;collapsible=1;marginBottom=0;rounded=0;shadow=0;strokeWidth=1;fillColor=#F08E81;strokeColor=#FFFFFF;fontColor=#1A1A1A;" vertex="1" parent="1">
          <mxGeometry x="310" y="390" width="160" height="216" as="geometry">
            <mxRectangle x="340" y="380" width="170" height="26" as="alternateBounds" />
          </mxGeometry>
        </mxCell>
        <mxCell id="5_xsWp0p6IKdPcsy124D-25" value="is_super_admin: bool" style="text;align=left;verticalAlign=top;spacingLeft=4;spacingRight=4;overflow=hidden;rotatable=0;points=[[0,0.5],[1,0.5]];portConstraint=eastwest;fillColor=#ffff88;strokeColor=#36393d;" vertex="1" parent="5_xsWp0p6IKdPcsy124D-24">
          <mxGeometry y="26" width="160" height="26" as="geometry" />
        </mxCell>
        <mxCell id="5_xsWp0p6IKdPcsy124D-26" value="is_staff: bool" style="text;align=left;verticalAlign=top;spacingLeft=4;spacingRight=4;overflow=hidden;rotatable=0;points=[[0,0.5],[1,0.5]];portConstraint=eastwest;fillColor=#ffff88;strokeColor=#36393d;" vertex="1" parent="5_xsWp0p6IKdPcsy124D-24">
          <mxGeometry y="52" width="160" height="26" as="geometry" />
        </mxCell>
        <mxCell id="5_xsWp0p6IKdPcsy124D-27" value="Join_Date : date" style="text;align=left;verticalAlign=top;spacingLeft=4;spacingRight=4;overflow=hidden;rotatable=0;points=[[0,0.5],[1,0.5]];portConstraint=eastwest;fillColor=#ffff88;strokeColor=#36393d;" vertex="1" parent="5_xsWp0p6IKdPcsy124D-24">
          <mxGeometry y="78" width="160" height="26" as="geometry" />
        </mxCell>
        <mxCell id="5_xsWp0p6IKdPcsy124D-28" value="" style="line;html=1;strokeWidth=1;align=left;verticalAlign=middle;spacingTop=-1;spacingLeft=3;spacingRight=3;rotatable=0;labelPosition=right;points=[];portConstraint=eastwest;labelBackgroundColor=#B0E3E6;fillColor=#ffff88;strokeColor=#36393d;" vertex="1" parent="5_xsWp0p6IKdPcsy124D-24">
          <mxGeometry y="104" width="160" height="8" as="geometry" />
        </mxCell>
        <mxCell id="5_xsWp0p6IKdPcsy124D-29" value="manage_analyst(): void" style="text;align=left;verticalAlign=top;spacingLeft=4;spacingRight=4;overflow=hidden;rotatable=0;points=[[0,0.5],[1,0.5]];portConstraint=eastwest;fillColor=#ffff88;strokeColor=#36393d;" vertex="1" parent="5_xsWp0p6IKdPcsy124D-24">
          <mxGeometry y="112" width="160" height="26" as="geometry" />
        </mxCell>
        <mxCell id="5_xsWp0p6IKdPcsy124D-30" value="ViewReports() : void" style="text;align=left;verticalAlign=top;spacingLeft=4;spacingRight=4;overflow=hidden;rotatable=0;points=[[0,0.5],[1,0.5]];portConstraint=eastwest;fillColor=#ffff88;strokeColor=#36393d;" vertex="1" parent="5_xsWp0p6IKdPcsy124D-24">
          <mxGeometry y="138" width="160" height="26" as="geometry" />
        </mxCell>
        <mxCell id="5_xsWp0p6IKdPcsy124D-31" value="BlockAccount() : void" style="text;align=left;verticalAlign=top;spacingLeft=4;spacingRight=4;overflow=hidden;rotatable=0;points=[[0,0.5],[1,0.5]];portConstraint=eastwest;fillColor=#ffff88;strokeColor=#36393d;" vertex="1" parent="5_xsWp0p6IKdPcsy124D-24">
          <mxGeometry y="164" width="160" height="26" as="geometry" />
        </mxCell>
        <mxCell id="5_xsWp0p6IKdPcsy124D-32" value="ViewAnalystReport() : Void" style="text;align=left;verticalAlign=top;spacingLeft=4;spacingRight=4;overflow=hidden;rotatable=0;points=[[0,0.5],[1,0.5]];portConstraint=eastwest;fillColor=#ffff88;strokeColor=#36393d;" vertex="1" parent="5_xsWp0p6IKdPcsy124D-24">
          <mxGeometry y="190" width="160" height="26" as="geometry" />
        </mxCell>
        <mxCell id="5_xsWp0p6IKdPcsy124D-35" value="&lt;font style=&quot;font-size: 26px&quot;&gt;&lt;b&gt;Class Diagram GBSD&lt;/b&gt;&lt;/font&gt;" style="text;html=1;align=center;verticalAlign=middle;resizable=0;points=[];autosize=1;strokeColor=none;fillColor=none;fontColor=#000000;" vertex="1" parent="1">
          <mxGeometry x="210" y="20" width="280" height="20" as="geometry" />
        </mxCell>
      </root>
    </mxGraphModel>
  </diagram>
</mxfile>
